<svg xmlns="http://www.w3.org/2000/svg" width="24" height="24" fill="none" viewBox="0 0 24 24">
  <path stroke="currentColor" stroke-linecap="round" stroke-linejoin="round" stroke-width="1.5" d="M12 12 3.706 7.212M11.999 12l8.293-4.788M11.999 12v9.545m-3.968-17 7.825 4.51a1 1 0 0 1 .5.866v4.008M9.602 3.135c.874-.504 1.311-.757 1.776-.856a3 3 0 0 1 1.248 0c.464.1.901.352 1.776.856l4.077 2.354c.874.505 1.311.757 1.629 1.11a3 3 0 0 1 .624 1.08c.146.453.146.957.146 1.967v4.707c0 1.01 0 1.515-.146 1.967a3 3 0 0 1-.624 1.08c-.318.353-.755.606-1.63 1.11l-4.076 2.354c-.875.505-1.312.757-1.776.856a3 3 0 0 1-1.248 0c-.465-.099-.902-.351-1.776-.856L5.525 18.51c-.874-.504-1.311-.757-1.63-1.11a3 3 0 0 1-.623-1.08c-.147-.452-.147-.957-.147-1.966V9.646c0-1.01 0-1.514.147-1.966a3 3 0 0 1 .624-1.08c.318-.354.755-.606 1.629-1.11l4.077-2.355Z"/>
</svg>
