<svg xmlns="http://www.w3.org/2000/svg" width="24" height="24" fill="currentColor" viewBox="0 0 24 24">
  <path d="M2.373 8.438a.5.5 0 0 1 .75-.433L11 12.552a.5.5 0 0 1 .25.433v9.096a.5.5 0 0 1-.75.432l-6.252-3.609a3.75 3.75 0 0 1-1.875-3.247V8.438Zm18.504-.433a.5.5 0 0 1 .75.433v7.219a3.75 3.75 0 0 1-1.875 3.247l-6.252 3.61a.5.5 0 0 1-.75-.433v-9.096a.5.5 0 0 1 .25-.432l3.689-2.13v3.766c0 .22 0 .33.028.402a.4.4 0 0 0 .428.247c.077-.011.172-.066.362-.176.176-.102.265-.152.337-.215a1 1 0 0 0 .326-.566c.018-.094.018-.196.018-.4V9.556l2.689-1.551Zm-5.19 1.263-3.437 1.986a.5.5 0 0 1-.5 0L3.873 6.706a.5.5 0 0 1 0-.866l2.938-1.697 8.877 5.125Zm-4.562-7.615a1.75 1.75 0 0 1 1.75 0l7.251 4.187a.5.5 0 0 1 0 .866l-2.939 1.696-8.876-5.125 2.814-1.624Z"/>
</svg>
