<svg xmlns="http://www.w3.org/2000/svg" width="24" height="24" fill="none" viewBox="0 0 24 24">
  <path stroke="currentColor" stroke-linecap="round" stroke-linejoin="round" stroke-width="1.5" d="M12 12.25a4.5 4.5 0 1 0 0-9 4.5 4.5 0 0 0 0 9Zm.002 0c-3.78 0-6.13 2.171-7.053 5.045-.507 1.578.896 2.955 2.553 2.955h2.75"/>
  <path fill="currentColor" d="M19.1 16.3a.9.9 0 1 0 0-1.8.9.9 0 0 0 0 1.8Z"/>
  <path stroke="currentColor" stroke-linejoin="round" stroke-width="1.5" d="M18.85 12.55a3.101 3.101 0 0 1 0 6.2c-.332 0-.651-.054-.95-.15l-2.15 2.15h-2v-2l2.15-2.15a3.1 3.1 0 0 1 2.95-4.05Z"/>
</svg>
